<?xml version="1.0" standalone="no"?>
<!DOCTYPE svg PUBLIC "-//W3C//DTD SVG 20010904//EN"
 "http://www.w3.org/TR/2001/REC-SVG-20010904/DTD/svg10.dtd">
<svg version="1.0" xmlns="http://www.w3.org/2000/svg"
 width="700.000000pt" height="700.000000pt" viewBox="0 0 700.000000 700.000000"
 preserveAspectRatio="xMidYMid meet">
<metadata>
Created by potrace 1.14, written by Peter Selinger 2001-2017
</metadata>
<g transform="translate(0.000000,700.000000) scale(0.100000,-0.100000)"
fill="#000000" stroke="none">
<path d="M0 3500 l0 -3500 3500 0 3500 0 0 3500 0 3500 -3500 0 -3500 0 0
-3500z m5075 2677 c246 -37 389 -77 540 -152 370 -182 563 -592 504 -1065 -45
-365 -163 -628 -387 -861 -165 -173 -378 -316 -618 -415 -62 -26 -111 -51
-109 -54 2 -4 33 -17 67 -30 232 -83 447 -251 557 -434 45 -74 97 -231 110
-329 27 -193 -1 -437 -74 -662 -124 -380 -449 -759 -862 -1006 -214 -127 -548
-259 -793 -313 -282 -62 -215 -60 -1737 -63 -807 -2 -1393 0 -1393 5 0 10
1327 5368 1335 5390 4 11 258 12 1377 9 1216 -3 1386 -5 1483 -20z"/>
<path d="M3209 4588 l-146 -603 376 -3 c491 -4 636 11 811 82 186 75 340 223
439 422 49 99 65 177 59 296 -4 76 -10 104 -33 152 -53 112 -152 184 -314 229
-72 20 -103 21 -562 25 l-485 3 -145 -603z"/>
<path d="M2855 3048 c-8 -23 -285 -1151 -285 -1160 0 -6 188 -8 488 -5 500 5
545 8 709 51 230 60 440 216 531 393 98 189 107 375 28 531 -38 76 -130 134
-274 175 -74 20 -101 21 -635 25 -451 2 -558 1 -562 -10z"/>
</g>
</svg>
