<svg enable-background="new 0 0 24 24" viewBox="0 0 24 24" xmlns="http://www.w3.org/2000/svg" height="48" width="48"><g clip-rule="evenodd" fill-rule="evenodd"><path d="m20.484 8.985-7.901-6.284c-.341-.271-.824-.271-1.165 0l-7.9 6.283c-.446.355-.707.894-.707 1.464v8.81c0 1.24 1.005 2.245 2.245 2.245h4.659v-4.634c0-.552.448-1 1-1h2.572c.552 0 1 .448 1 1v4.634h4.66c1.24 0 2.245-1.005 2.245-2.245v-8.809c-.002-.57-.262-1.109-.708-1.464z" fill="#adb7c1" /><path d="m20.484 8.984-7.901-6.282c-.34-.271-.823-.271-1.164 0l-7.902 6.283c-.447.355-.707.894-.707 1.464v2.839l8.608-6.844c.34-.271.823-.271 1.164 0l8.607 6.844v-2.839c0-.571-.26-1.11-.705-1.465" fill="#3181f4" /></g></svg>