<svg xmlns="http://www.w3.org/2000/svg" xml:space="preserve" style="enable-background:new 0 0 24 24" viewBox="0 0 24 24"><switch><g><path d="M0 0h24v24H0z" style="fill:#111"/><path d="M18.3 12.1c-.4-.2-.8-.4-1.3-.6.2-.1.3-.1.5-.2 1.7-.8 2.8-1.9 3.2-3.4.4-1.5.3-2.7-.4-3.7S18.2 2.7 16 2.7H7.6L3 21.3h8.5c1.5 0 2.8-.3 4-.8 1.2-.5 2.2-1.2 2.9-2.1.7-.9 1.2-1.8 1.3-2.8.2-1.5-.3-2.7-1.4-3.5zm-4.2-5.9c.8 0 1.4.2 1.8.6.4.4.4.9.2 1.6-.2.6-.5 1.1-1.1 1.5-.6.3-1.3.5-2.1.5h-2.4l1-4.1h2.6zm.8 9.3c-.2.7-.6 1.2-1.2 1.5-.6.3-1.4.5-2.3.5H8.8l1-4h3.1c.9 0 1.5.2 1.8.6.3.4.4.8.2 1.4z" style="fill:#0058f5"/></g></switch></svg>