<svg xmlns="http://www.w3.org/2000/svg" xml:space="preserve" style="enable-background:new 0 0 48 48" viewBox="0 0 48 48"><switch><g><path d="M0 0h48v48H0z" style="fill:#111"/><path d="M36.7 24.3c-.7-.5-1.6-.9-2.5-1.2.3-.1.7-.3 1-.4 3.4-1.5 5.6-3.8 6.4-6.8.8-3 .5-5.5-.9-7.4-1.4-2-4.3-3-8.5-3h-17L6 42.6h16.9c3 0 5.6-.5 8-1.6 2.4-1 4.3-2.4 5.8-4.2 1.5-1.7 2.3-3.6 2.6-5.6.5-3.1-.4-5.4-2.6-6.9zm-8.4-11.9c1.7 0 2.9.4 3.6 1.1.7.8.9 1.8.5 3.2-.5 1.3-1.3 2.3-2.4 3-1.1.7-2.5 1-4.2 1H21l2-8.3h5.3zM29.9 31c-.4 1.4-1.2 2.4-2.5 3.1-1.2.7-2.8 1-4.6 1h-5.2l2-8.1h6.3c1.7 0 2.9.4 3.6 1.1.5.8.7 1.8.4 2.9z" style="fill:#0058f5"/></g></switch></svg>